<svg width="75" height="146" viewBox="0 0 75 146" fill="none" xmlns="http://www.w3.org/2000/svg">
<path d="M40.5681 0.535318L30.2799 116.333L36.0892 116.849L46.3774 1.05145L40.5681 0.535318Z" fill="#C3C5F4"/>
<mask id="mask0_13_405" style="mask-type:luminance" maskUnits="userSpaceOnUse" x="30" y="0" width="17" height="117">
<path d="M40.5681 0.535325L30.2799 116.333L36.0892 116.849L46.3774 1.05146L40.5681 0.535325Z" fill="white"/>
</mask>
<g mask="url(#mask0_13_405)">
<path d="M109.139 68.7858L-36.6063 136.175L-34.75 140.19L110.996 72.8006L109.139 68.7858Z" fill="#757EEA"/>
<path d="M110.421 54.3641L-35.3243 121.754L-33.4688 125.767L112.277 58.377L110.421 54.3641Z" fill="#757EEA"/>
<path d="M111.691 39.9699L-34.0533 107.343L-32.1983 111.356L113.547 43.9829L111.691 39.9699Z" fill="#757EEA"/>
<path d="M112.983 25.5255L-32.7621 92.9147L-30.9058 96.9294L114.839 29.5403L112.983 25.5255Z" fill="#757EEA"/>
<path d="M114.264 11.101L-31.4821 78.4906L-29.6257 82.5054L116.12 15.1158L114.264 11.101Z" fill="#757EEA"/>
<path d="M115.546 -3.31692L-30.2 64.0726L-28.3436 68.0874L117.402 0.697839L115.546 -3.31692Z" fill="#757EEA"/>
<path d="M116.827 -17.739L-28.9193 49.6509L-27.0634 53.6648L118.683 -13.7252L116.827 -17.739Z" fill="#757EEA"/>
<path d="M118.107 -32.1616L-27.6375 35.2275L-25.7815 39.2414L119.963 -28.1477L118.107 -32.1616Z" fill="#757EEA"/>
</g>
<path d="M36.54 117.396L29.735 116.791L40.114 0L46.919 0.605999L46.875 1.104L36.54 117.396ZM30.82 115.884L35.633 116.311L45.836 1.514L41.022 1.085L30.82 115.884Z" fill="#152F47"/>
<path d="M37.2439 60.237C24.8099 60.237 13.5979 58.154 5.63293 55.642C7.01793 70.38 13.2219 136.709 13.9129 140.532C14.6909 144.839 20.5229 144.937 20.5229 144.937H36.0759H38.4089H53.9609C53.9609 144.937 59.7939 144.839 60.5719 140.532C61.2619 136.71 67.4679 70.381 68.8509 55.643C60.8889 58.155 49.6759 60.237 37.2439 60.237Z" fill="#F1C1F7"/>
<path d="M54.889 58.854C59.914 67.16 62.889 77.4249 62.889 88.5409C62.889 116.177 44.53 138.58 21.884 138.58C19.025 138.58 16.236 138.221 13.543 137.542C13.716 139.101 13.844 140.143 13.914 140.532C14.692 144.839 20.524 144.937 20.524 144.937H36.077H38.41H53.962C53.962 144.937 59.795 144.839 60.573 140.532C61.263 136.71 67.469 70.3809 68.852 55.6429C64.912 56.8859 60.174 58.022 54.889 58.854Z" fill="#E7B4EF"/>
<g opacity="0.25">
<path d="M5.63293 55.642C6.40893 63.892 8.69393 88.308 10.6769 108.877C25.7839 106.664 37.4349 92.554 37.4349 75.465C37.4349 69.963 36.2199 64.775 34.0779 60.187C22.9149 59.872 12.9149 57.939 5.63293 55.642Z" fill="white"/>
</g>
<path d="M38.4099 145.437H20.5239C20.4529 145.436 14.2629 145.278 13.4209 140.621C12.7749 137.045 7.48395 80.705 5.49295 59.495L5.06494 54.938L5.78395 55.165C11.197 56.873 22.4809 59.737 37.2439 59.737C52.0049 59.737 63.2889 56.873 68.702 55.166L69.4209 54.939L69.1489 57.836C64.2259 110.325 61.506 138.177 61.065 140.62C60.223 145.277 54.033 145.435 53.97 145.436L38.4099 145.437ZM6.20094 56.342L6.48894 59.402C8.28894 78.572 13.7669 136.909 14.4059 140.443C15.1009 144.29 20.4789 144.436 20.5329 144.437H53.9619C54.0069 144.436 59.3859 144.291 60.0809 140.443C60.5179 138.029 63.2329 110.204 68.1529 57.744L68.285 56.343C62.574 58.082 51.5149 60.738 37.2439 60.738C22.9699 60.737 11.9109 58.081 6.20094 56.342Z" fill="#152F47"/>
<path d="M60.8449 41.189C59.2009 40.86 43.0589 41.189 37.2379 41.189C31.4169 41.189 15.2749 40.86 13.6309 41.189C11.9869 41.518 8.35791 51.093 8.35791 51.093C20.5109 58.202 37.2369 56.791 37.2369 56.791C37.2369 56.791 53.9629 58.202 66.1159 51.093C66.1179 51.093 62.4889 41.518 60.8449 41.189Z" fill="#F1C1F7"/>
<path d="M60.8449 41.189C60.6129 41.143 60.0839 41.11 59.3439 41.087C58.1389 48.747 44.0259 54.794 26.7799 54.794C22.0109 54.794 17.4849 54.328 13.4009 53.497C24.6659 57.848 37.2379 56.791 37.2379 56.791C37.2379 56.791 53.9639 58.202 66.1169 51.093C66.1169 51.093 62.4889 41.518 60.8449 41.189Z" fill="#E9B1F2"/>
<path d="M40.6729 57.396C38.5489 57.396 37.2429 57.292 37.1959 57.289C37.1129 57.304 20.2569 58.632 8.10695 51.525L7.74194 51.312L7.89095 50.916C8.76495 48.609 11.7559 41.055 13.5329 40.699C14.6449 40.476 21.2859 40.531 29.8489 40.627C32.7959 40.66 35.4859 40.69 37.2379 40.69C38.9909 40.69 41.6799 40.66 44.6279 40.627C53.1909 40.532 59.8329 40.478 60.9419 40.699H60.9429C62.7189 41.055 65.7099 48.609 66.5849 50.916L66.7339 51.312L66.3699 51.525C57.5609 56.677 46.2759 57.396 40.6729 57.396ZM8.97894 50.873C20.8209 57.579 37.0329 56.305 37.1959 56.293C37.4419 56.305 53.6539 57.58 65.4979 50.873C63.8119 46.5 61.5499 41.857 60.7469 41.68C59.6479 41.461 50.9749 41.557 44.6389 41.627C41.6869 41.66 38.9939 41.69 37.2379 41.69C35.4829 41.69 32.7889 41.66 29.8379 41.627C23.5039 41.557 14.828 41.461 13.7299 41.68C12.9269 41.856 10.6649 46.499 8.97894 50.873Z" fill="#152F47"/>
<path d="M5.625 76.811C6.923 90.559 8.48701 107.01 9.77301 120.153C33.477 127.892 55.312 122.939 64.731 119.98C66.01 106.899 67.562 90.583 68.852 76.916C40.2 82.69 16.098 79.058 5.625 76.811Z" fill="#F8E5E5"/>
<path d="M30.876 83.568C30.844 82.801 29.647 82.797 29.68 83.568C30.149 94.717 30.617 105.866 31.086 117.015C31.153 118.604 31.22 120.193 31.286 121.783C31.318 122.55 32.515 122.554 32.482 121.783C32.013 110.634 31.545 99.485 31.076 88.336C31.009 86.747 30.942 85.158 30.876 83.568Z" fill="#F7D2D2"/>
<path d="M22.907 82.959C22.847 82.197 21.65 82.19 21.711 82.959C22.582 94.007 23.453 105.055 24.324 116.103C24.449 117.692 24.574 119.28 24.7 120.869C24.76 121.631 25.957 121.638 25.896 120.869C25.025 109.821 24.154 98.773 23.283 87.725C23.157 86.137 23.032 84.548 22.907 82.959Z" fill="#F7D2D2"/>
<path d="M15.275 82.9589C15.188 82.2029 13.991 82.1939 14.079 82.9589C15.307 93.6759 16.535 104.394 17.763 115.111C17.936 116.624 18.11 118.138 18.283 119.651C18.37 120.407 19.567 120.416 19.479 119.651C18.251 108.934 17.0229 98.2159 15.7949 87.4989C15.6219 85.9859 15.448 84.4729 15.275 82.9589Z" fill="#F7D2D2"/>
<path d="M9.91396 82.9589C9.84596 82.1979 8.64896 82.1909 8.71796 82.9589C9.62996 93.1489 10.542 103.339 11.453 113.53C11.584 114.995 11.715 116.46 11.846 117.924C11.914 118.685 13.111 118.692 13.042 117.924C12.13 107.734 11.218 97.5439 10.307 87.3529C10.176 85.8889 10.045 84.4239 9.91396 82.9589Z" fill="#F7D2D2"/>
<path d="M37.4349 82.385C37.1289 82.376 36.8169 82.5649 36.8169 82.9589C36.8169 94.5069 36.8169 106.055 36.8169 117.603C36.8169 119.25 36.8169 120.897 36.8169 122.544C36.8169 122.937 37.1289 123.127 37.4349 123.119C37.7409 123.128 38.0529 122.938 38.0529 122.544C38.0529 120.897 38.0529 119.25 38.0529 117.603C38.0529 106.055 38.0529 94.5069 38.0529 82.9589C38.0529 82.5649 37.7409 82.376 37.4349 82.385Z" fill="#F7D2D2"/>
<path d="M43.9949 83.568C43.9279 85.157 43.8609 86.747 43.7949 88.336C43.3259 99.485 42.8579 110.634 42.3889 121.783C42.3569 122.554 43.5529 122.55 43.5849 121.783C43.6519 120.194 43.7189 118.605 43.7849 117.015C44.2539 105.866 44.7219 94.717 45.1909 83.568C45.2229 82.797 44.0269 82.801 43.9949 83.568Z" fill="#F7D2D2"/>
<path d="M51.9629 82.959C51.8379 84.548 51.7129 86.136 51.5869 87.725C50.7159 98.773 49.8449 109.821 48.9749 120.869C48.9139 121.638 50.1109 121.631 50.1709 120.869C50.2959 119.28 50.4209 117.692 50.5469 116.103C51.4179 105.055 52.2889 94.007 53.1589 82.959C53.2199 82.19 52.0229 82.197 51.9629 82.959Z" fill="#F7D2D2"/>
<path d="M59.5959 82.9589C59.4229 84.4719 59.2489 85.9859 59.0759 87.4989C57.8479 98.2159 56.62 108.934 55.392 119.651C55.304 120.416 56.5009 120.407 56.5879 119.651C56.7609 118.138 56.935 116.624 57.108 115.111C58.336 104.394 59.5639 93.6759 60.7919 82.9589C60.8789 82.1949 59.6819 82.2029 59.5959 82.9589Z" fill="#F7D2D2"/>
<path d="M64.956 82.9589C64.825 84.4239 64.694 85.8889 64.563 87.3529C63.651 97.5429 62.739 107.733 61.827 117.924C61.758 118.692 62.955 118.685 63.023 117.924C63.154 116.459 63.285 114.994 63.416 113.53C64.328 103.34 65.2399 93.1499 66.1519 82.9589C66.2209 82.1909 65.024 82.1989 64.956 82.9589Z" fill="#F7D2D2"/>
<path d="M4.25894 60.624C11.2299 62.931 18.7149 64.064 25.9869 64.814C38.3109 66.084 50.8199 65.192 62.9119 62.538C65.3659 61.999 67.836 61.416 70.224 60.626C72.785 59.779 74.7219 57.02 73.8329 54.27C73.0069 51.717 70.2249 49.752 67.4769 50.662C65.6209 51.276 63.7119 51.75 61.8119 52.199C59.7109 52.695 57.595 53.127 55.47 53.502C54.217 53.723 52.9609 53.917 51.7019 54.103C50.3949 54.297 52.5069 54.005 51.6649 54.111C51.3199 54.154 50.9759 54.2 50.6309 54.242C49.7759 54.346 48.9189 54.441 48.0619 54.526C41.6099 55.165 35.1159 55.239 28.6519 54.725C27.1899 54.609 25.7299 54.464 24.2729 54.292C23.9249 54.251 23.5779 54.208 23.2299 54.164C22.8009 54.109 22.1069 54.27 23.1799 54.159C22.4719 54.232 21.5429 53.921 20.8479 53.81C18.6119 53.452 16.3849 53.031 14.1739 52.542C11.7679 52.01 9.34694 51.436 7.00494 50.661C4.43694 49.811 1.24695 51.644 0.649945 54.27C0.00194541 57.115 1.50994 59.715 4.25894 60.624Z" fill="#E494F2"/>
<path d="M73.451 53.376C72.774 54.624 71.5909 55.622 70.2249 56.074C67.8369 56.864 65.367 57.447 62.913 57.986C50.82 60.641 38.311 61.533 25.988 60.262C18.715 59.512 11.231 58.379 4.25996 56.072C2.74796 55.572 1.63196 54.551 1.02296 53.268C0.858962 53.585 0.73096 53.918 0.65196 54.267C0.00395973 57.113 1.51095 59.713 4.26095 60.622C11.232 62.929 18.717 64.062 25.989 64.812C38.313 66.082 50.822 65.19 62.914 62.536C65.368 61.997 67.838 61.414 70.226 60.624C72.787 59.777 74.724 57.018 73.834 54.269C73.734 53.962 73.605 53.662 73.451 53.376Z" fill="#D782E8"/>
<g opacity="0.1">
<path d="M62.641 78.031C62.65 78.358 62.67 78.684 62.67 79.013C62.67 101.98 40.952 120.598 14.162 120.598C13.051 120.598 11.953 120.554 10.861 120.492C34.143 127.732 55.456 122.895 64.731 119.981C66.01 106.9 67.562 90.584 68.852 76.917C66.755 77.338 64.685 77.705 62.641 78.031Z" fill="#C1422D"/>
</g>
<path d="M36.299 124.76C28.139 124.76 19.007 123.694 9.61699 120.628L9.30598 120.527L9.27399 120.202C8.21099 109.342 6.81598 94.76 5.12698 76.858L5.06299 76.179L5.73 76.322C17.224 78.788 40.698 82.08 68.754 76.426L69.414 76.293L69.35 76.963C67.686 94.592 66.299 109.082 65.229 120.029L65.197 120.358L64.881 120.457C59.647 122.101 49.184 124.76 36.299 124.76ZM10.238 119.778C33.771 127.354 55.62 122.277 64.265 119.601C65.318 108.834 66.672 94.687 68.291 77.537C40.881 82.938 17.888 79.884 6.18599 77.44C7.83099 94.854 9.19299 109.092 10.238 119.778Z" fill="#152F47"/>
<path d="M37.226 65.887C33.428 65.887 29.662 65.695 25.936 65.311C19.78 64.676 11.735 63.624 4.10196 61.099C1.07896 60.099 -0.540035 57.245 0.162965 54.158C0.481965 52.758 1.46697 51.503 2.86597 50.714C4.24997 49.932 5.81597 49.739 7.16297 50.186C9.52197 50.966 11.979 51.545 14.283 52.053C16.448 52.532 18.684 52.956 20.929 53.316C21.151 53.352 21.395 53.406 21.649 53.463C22.001 53.543 22.387 53.629 22.728 53.659C22.944 53.632 23.166 53.651 23.296 53.668L24.334 53.796C25.783 53.967 27.249 54.112 28.694 54.227C35.069 54.734 41.569 54.666 48.015 54.029C48.869 53.944 49.721 53.85 50.573 53.746L51.487 53.631C51.534 53.624 51.583 53.616 51.632 53.609C52.885 53.423 54.138 53.23 55.386 53.01C57.536 52.63 59.6599 52.194 61.6989 51.713C63.8219 51.212 65.591 50.761 67.322 50.188C68.594 49.767 69.985 49.883 71.237 50.518C72.667 51.243 73.816 52.588 74.311 54.117C75.337 57.289 73.072 60.212 70.383 61.101C67.939 61.911 65.4 62.505 63.021 63.027C54.343 64.931 45.706 65.887 37.226 65.887ZM4.41596 60.15C11.957 62.645 19.933 63.688 26.039 64.317C37.977 65.549 50.347 64.785 62.805 62.05C65.158 61.534 67.666 60.946 70.068 60.151C72.312 59.409 74.1699 56.93 73.3589 54.424C72.9439 53.143 71.981 52.016 70.785 51.409C70.069 51.046 68.941 50.705 67.636 51.136C65.87 51.72 64.077 52.178 61.929 52.685C59.87 53.17 57.728 53.611 55.559 53.993C54.355 54.205 53.148 54.392 51.939 54.573C51.929 54.575 51.919 54.578 51.909 54.58L51.91 54.584L51.857 54.59C51.774 54.607 51.687 54.618 51.603 54.63C51.541 54.638 51.4709 54.648 51.3979 54.653C51.3829 54.655 51.374 54.657 51.367 54.658L51.366 54.655C51.354 54.656 51.343 54.656 51.33 54.657L50.694 54.737C49.835 54.841 48.974 54.937 48.113 55.023C41.61 55.668 35.049 55.735 28.615 55.223C27.157 55.107 25.678 54.96 24.217 54.788L23.182 54.661C22.741 54.705 22.503 54.727 22.338 54.619C22.029 54.573 21.72 54.504 21.43 54.438C21.198 54.386 20.974 54.335 20.772 54.303C18.509 53.941 16.253 53.513 14.069 53.03C11.739 52.516 9.25295 51.93 6.85095 51.135C5.77095 50.779 4.49996 50.941 3.35896 51.585C2.20496 52.236 1.39695 53.255 1.13995 54.38C0.553955 56.945 1.90196 59.317 4.41596 60.15Z" fill="#152F47"/>
<path d="M10.5279 68.994C10.9919 73.192 11.4559 77.39 11.9199 81.589C11.9859 82.183 12.0509 82.777 12.1169 83.37C12.2019 84.135 13.3909 84.005 13.3059 83.239C12.8419 79.041 12.3779 74.843 11.9139 70.644C11.8479 70.05 11.7829 69.456 11.7169 68.863C11.6329 68.098 10.4439 68.228 10.5279 68.994Z" fill="white"/>
<path d="M13.4919 85.516C13.5239 85.809 13.3129 86.072 13.0209 86.104C12.7289 86.136 12.4649 85.925 12.4329 85.633C12.4009 85.34 12.6119 85.077 12.9039 85.045C13.1959 85.012 13.4599 85.224 13.4919 85.516Z" fill="white"/>
<path d="M26.254 97.983C26.254 101.245 24.488 103.889 22.309 103.889C20.13 103.889 18.364 101.245 18.364 97.983C18.364 94.721 20.13 92.077 22.309 92.077C24.488 92.077 26.254 94.721 26.254 97.983Z" fill="#152F47"/>
<path d="M21.476 97.198C22.3807 97.198 23.114 96.4646 23.114 95.56C23.114 94.6554 22.3807 93.922 21.476 93.922C20.5714 93.922 19.838 94.6554 19.838 95.56C19.838 96.4646 20.5714 97.198 21.476 97.198Z" fill="white"/>
<path d="M23.702 99.245C24.2974 99.245 24.78 98.7624 24.78 98.167C24.78 97.5716 24.2974 97.089 23.702 97.089C23.1067 97.089 22.624 97.5716 22.624 98.167C22.624 98.7624 23.1067 99.245 23.702 99.245Z" fill="white"/>
<path d="M56.284 97.983C56.284 101.245 54.518 103.889 52.339 103.889C50.16 103.889 48.394 101.245 48.394 97.983C48.394 94.721 50.16 92.077 52.339 92.077C54.518 92.077 56.284 94.721 56.284 97.983Z" fill="#152F47"/>
<path d="M53.144 95.56C53.144 96.465 52.411 97.198 51.506 97.198C50.601 97.198 49.868 96.465 49.868 95.56C49.868 94.655 50.601 93.922 51.506 93.922C52.411 93.922 53.144 94.656 53.144 95.56Z" fill="white"/>
<path d="M53.7321 99.245C54.3274 99.245 54.8101 98.7624 54.8101 98.167C54.8101 97.5716 54.3274 97.089 53.7321 97.089C53.1367 97.089 52.6541 97.5716 52.6541 98.167C52.6541 98.7624 53.1367 99.245 53.7321 99.245Z" fill="white"/>
<path d="M33.624 100.404C33.624 100.404 32.659 108.288 37.358 108.288C42.056 108.288 41.235 100.33 41.235 100.33C41.235 100.33 36.901 101.762 33.624 100.404Z" fill="#FFC9E2"/>
<path d="M32.05 99.987C35.193 102.084 39.367 101.533 42.577 99.987C42.999 99.784 42.631 99.159 42.211 99.361C39.225 100.799 35.335 101.308 32.416 99.361C32.025 99.1 31.662 99.729 32.05 99.987Z" fill="#152F47"/>
<path d="M41.597 100.33C41.564 99.866 40.839 99.863 40.87 100.33C41.038 102.785 40.802 107.403 37.721 107.891C37.721 106.62 37.721 105.349 37.721 104.078C37.721 103.61 36.995 103.61 36.995 104.078C36.995 105.363 36.995 106.649 36.995 107.933C34.004 107.733 33.665 103.044 33.854 100.737C33.892 100.27 33.166 100.274 33.128 100.737C32.881 103.74 33.542 108.49 37.274 108.625C37.319 108.634 37.364 108.636 37.409 108.63C37.482 108.631 37.548 108.642 37.622 108.638C41.336 108.488 41.785 103.073 41.597 100.33Z" fill="#152F47"/>
<path d="M23.491 104.74C23.187 105.538 21.09 105.478 18.807 104.607C16.525 103.736 14.921 102.384 15.225 101.586C15.529 100.788 17.626 100.848 19.909 101.719C22.192 102.59 23.796 103.942 23.491 104.74Z" fill="#FF81CE"/>
<path d="M51.063 104.74C51.367 105.538 53.464 105.478 55.747 104.607C58.03 103.736 59.633 102.384 59.329 101.586C59.025 100.788 56.928 100.848 54.645 101.719C52.362 102.59 50.759 103.942 51.063 104.74Z" fill="#FF81CE"/>
</svg>
