<svg width="188" height="188" viewBox="0 0 188 188" fill="none" xmlns="http://www.w3.org/2000/svg">
<path d="M102.451 7.00932L107.889 15.6825C111.631 21.6491 119.392 23.6346 125.539 20.1977L133.679 15.6463C139.38 12.4585 146.405 16.5797 146.405 23.1115V31.9113C146.405 38.7594 151.637 44.4736 158.457 45.0781L167.23 45.8551C173.635 46.4227 177.146 53.592 173.668 59.0012L169.206 65.94C165.135 72.2693 167.163 80.7146 173.661 84.507L180.757 88.647C186.474 91.9828 186.399 100.269 180.621 103.5L173.651 107.397C167.153 111.031 164.936 119.312 168.751 125.706L171.103 129.649C174.503 135.351 170.396 142.583 163.757 142.583H157.182C149.883 142.583 143.964 148.502 143.964 155.802V164.201C143.964 170.783 136.839 174.898 131.136 171.608L125.41 168.305C119.353 164.809 111.623 166.636 107.771 172.471L102.34 180.7C98.9208 185.879 91.2977 185.809 87.9776 180.566L82.8614 172.494C79.1572 166.645 71.5668 164.647 65.463 167.913L57.0251 172.426C51.3273 175.472 44.4382 171.345 44.4382 164.883V158.237C44.4382 150.936 38.5196 145.019 31.22 145.019H23.9282C17.5663 145.019 13.4313 138.318 16.2833 132.631L20.0373 125.147C23.1833 118.877 20.8817 111.241 14.7951 107.752L7.29963 103.456C1.62822 100.206 1.552 92.0509 7.16276 88.6954L14.8496 84.0987C20.9097 80.4742 23.0511 72.7263 19.7123 66.5041L14.5074 56.805C11.4486 51.1071 15.5773 44.2078 22.0434 44.2078H31.22C38.5196 44.2078 44.4382 38.2898 44.4382 30.9896V23.1115C44.4382 16.5797 51.4641 12.4585 57.1651 15.6463L65.1396 20.1047C71.3677 23.5872 79.2349 21.4981 82.9143 15.3846L87.8766 7.14197C91.1656 1.67786 99.0623 1.60601 102.451 7.00932Z" fill="#a786df" stroke="#0e172c" stroke-width="4"/>
</svg>
