<svg width="1443" height="1492" viewBox="0 0 1443 1492" fill="none" xmlns="http://www.w3.org/2000/svg">
<path d="M1419.17 531.961L1420.26 531.68L1031.62 438.404C1108.27 430.201 1184.77 404.875 1239.43 349.748C1268.81 320.109 1290.88 280.325 1293.59 238.094C1296.16 198.167 1283.53 156.897 1252.94 129.809C1236.45 115.212 1218.13 104.093 1196.63 98.407C1168.13 90.868 1137.98 92.406 1109.59 99.623C1059.77 112.289 1019.34 143.507 983.023 178.513C975.424 185.837 967.923 193.264 960.271 200.532C956.722 203.905 953.141 207.245 949.504 210.523C947.824 212.035 946.135 213.534 944.431 215.017C943.296 216.006 942.142 216.974 941.005 217.961C936.676 221.719 943.195 216.362 944.643 215.007C941.979 218.089 937.418 220.652 934.161 223.051C929.962 226.146 925.681 229.132 921.324 232.003C917.55 234.49 913.72 236.891 909.839 239.209C908.794 239.833 907.738 240.439 906.684 241.049L906.562 241.114C898.249 245.492 889.741 249.499 881.076 253.13C877.4 254.671 873.68 256.089 869.956 257.502C868.235 258.07 866.517 258.645 864.785 259.186C859.018 260.985 853.187 262.571 847.331 264.06C857.712 249.575 867.438 234.636 875.971 218.914C901.377 172.103 919.761 116.877 911.126 62.975C907.166 38.255 893.381 14.663 869.25 5.08805C836.499 -7.90795 796.247 5.71302 771.512 28.968C748.79 50.332 733.755 77.104 723.277 105.854C722.086 101.562 720.918 97.264 719.598 93.013C712.466 70.055 702.972 47.275 688.358 28.002C681.245 18.621 672.096 11.127 660.525 8.02805C642.082 3.09005 621.449 7.30504 603.961 13.772C577.389 23.598 558.49 44.169 549.097 70.641C532.403 117.698 546.198 168.193 568.455 210.793C576.556 226.298 585.58 241.462 595.333 256.178C589.608 254.261 583.931 252.206 578.309 249.993C553.293 239.071 529.772 225.141 508.388 208.152C481.542 185.279 457.851 159.014 430.326 136.854C400.818 113.097 365.034 96.649 326.934 93.792C246.834 87.786 159.868 143.235 151.318 227.263C144.098 298.229 187.402 360.467 246.449 395.615C277.046 413.828 311.904 425.575 346.794 432.168C355.119 433.741 363.45 435.065 371.786 436.25C204.101 483.122 27.879 532.046 24.184 531.677L0.405029 759.709L60.027 767.107L77.872 1345.21L721.098 1491.01V1491.27L721.66 1491.14L722.221 1491.02L1365.45 1345.21L1383.29 767.108L1442.92 759.71L1419.17 531.961ZM558.384 362.016C557.447 362.373 556.515 362.744 555.576 363.097C552.343 364.312 547.454 365.684 558.384 362.016ZM559.126 361.768C560.243 361.394 561.454 360.991 562.886 360.517C561.903 360.842 560.926 361.189 559.945 361.519L559.126 361.768ZM973.896 277.841C1002.14 261.107 1027.02 239.483 1050.53 216.716C1061.36 206.235 1072.03 195.587 1083.29 185.563C1086.1 183.061 1089.01 180.679 1091.83 178.183C1080.33 188.385 1090.23 179.599 1093.24 177.34C1098.65 173.274 1104.26 169.485 1110.04 165.98C1111.01 165.469 1111.99 164.953 1112.97 164.477C1115.65 163.186 1118.38 162.028 1121.11 160.885C1121.95 160.634 1122.78 160.362 1123.62 160.132C1124.52 159.887 1125.43 159.687 1126.33 159.471C1127.03 159.386 1127.72 159.294 1128.42 159.227C1128.76 159.195 1129.32 159.159 1129.96 159.122L1130.18 159.132C1131.6 159.213 1133.01 159.372 1134.42 159.515C1135.38 159.739 1136.34 159.952 1137.3 160.216C1139.04 160.697 1140.77 161.238 1142.47 161.824C1148.56 164.722 1154.3 168.186 1159.73 172.187C1168.55 180.132 1175.97 189.323 1181.89 199.612C1187.61 212.13 1190.85 225.46 1191.94 239.17C1191.93 253.985 1189.53 268.548 1184.98 282.626C1180.52 293.531 1174.83 303.772 1168.06 313.397C1162.31 320.454 1156.17 327.17 1149.42 333.292C1149.06 333.62 1148.22 334.344 1147.33 335.111C1146.27 335.95 1145.22 336.789 1144.77 337.124C1140.32 340.48 1135.73 343.654 1131.01 346.637C1129.43 347.636 1127.83 348.588 1126.22 349.547C1127.39 348.934 1128.77 348.218 1130.43 347.362C1129.27 347.961 1128.13 348.608 1126.97 349.215L1125.87 349.764C1125.34 350.08 1124.82 350.409 1124.29 350.724C1121.74 352.241 1117.91 353.946 1124.86 350.264C1119.91 352.795 1114.88 355.177 1109.77 357.36C1107.1 358.5 1104.4 359.59 1101.69 360.639C1096.46 362.333 1091.21 363.971 1085.89 365.41C1080.11 366.974 1074.29 368.368 1068.43 369.622C1067.09 369.908 1065.75 370.172 1064.4 370.432C1063.33 370.611 1062.25 370.79 1061.18 370.959C1048.51 372.947 1035.74 374.383 1022.95 375.275C1017.08 375.684 1010.85 375.33 1005.01 376.067C1001.83 376.055 998.644 376.02 995.463 375.93C982.019 375.551 968.592 374.493 955.266 372.672C952.134 372.245 949.019 371.655 945.885 371.262C960.783 373.129 947.13 371.385 943.39 370.611C936.715 369.229 930.081 367.642 923.507 365.84C912.788 362.902 902.265 359.347 891.922 355.298C875.061 347.928 858.938 339.082 843.817 328.683C889.566 319.053 933.637 301.697 973.896 277.841ZM760.41 186.838C765.978 142.132 776.425 92.546 801.626 55.721C804.657 51.291 807.918 47.016 811.403 42.932C813.102 40.939 814.86 38.99 816.676 37.102L817.351 36.482C818.614 35.325 819.878 34.173 821.189 33.068C821.735 32.608 822.294 32.159 822.865 31.722C823.707 32.054 824.553 32.37 825.378 32.755C826.494 33.276 827.596 33.825 828.659 34.447L828.961 34.619L829.604 35.107C833.892 38.249 837.759 41.892 841.03 46.091C847.722 54.68 851.035 65.831 852.947 76.415C861.434 123.365 845.734 173.669 824.555 215.171C817.57 228.859 809.587 241.975 800.952 254.685C789.015 245.175 774.483 238.541 757.557 235.523C757.405 219.275 758.399 202.989 760.41 186.838ZM599.852 92.42C601.01 72.989 607.233 50.808 619.947 35.668L620.523 35.063C620.984 35.377 621.461 35.687 621.884 35.995C626.072 39.042 629.672 42.846 632.873 46.898C646.11 63.654 654.304 85.227 660.769 105.355C667.941 127.68 673.195 150.673 676.883 173.822C680.559 196.909 682.47 220.227 682.799 243.562C675.681 246.309 668.824 249.604 662.32 253.379C654.222 242.127 646.566 230.545 639.429 218.636C616.593 180.533 597.141 137.878 599.852 92.42ZM352.358 355.332C334.595 347.586 317.878 337.895 302.662 325.87C288.389 313.243 276.112 298.663 266.642 282.093C258.732 265.729 253.923 248.195 252.593 230.065C252.642 217.552 254.408 205.248 258.144 193.318C261.125 186.288 264.789 179.638 269.13 173.368C271.247 170.88 273.426 168.448 275.766 166.156C276.615 165.325 277.505 164.543 278.39 163.753L279.171 163.172C280.566 162.172 282.011 161.258 283.447 160.327C284.185 159.987 284.926 159.65 285.669 159.325L286.028 159.231L286.806 159.17C288.477 159.23 290.151 159.282 291.814 159.442L293.026 159.583C294.971 160.028 296.939 160.413 298.854 160.935C302.225 161.853 305.53 162.966 308.808 164.156C323.605 170.855 337.192 179.64 349.904 189.731C382.438 217.478 410.472 249.962 445.912 274.394C480.915 298.523 521.538 315.821 562.797 325.821C577.223 329.317 591.91 332.002 606.682 333.981C606.585 335.124 606.502 336.272 606.446 337.429C603.685 339.308 600.955 341.235 598.126 343.011C596.082 344.293 594.022 345.546 591.946 346.774L591.726 346.903C582.463 351.757 573.023 356.228 563.311 360.119C561.77 360.736 560.216 361.316 558.665 361.907C553.515 363.609 548.33 365.21 543.099 366.644C537.669 368.133 532.198 369.47 526.697 370.672C526.028 370.818 524.345 371.154 522.695 371.482C520.882 371.789 519.047 372.099 518.278 372.215C505.763 374.099 493.147 375.295 480.505 375.882C478.219 375.988 475.884 375.984 473.571 376.077H473.217C466.481 376.046 459.748 375.848 453.021 375.493C440.454 374.83 427.911 373.613 415.445 371.888C413.882 371.672 412.324 371.428 410.764 371.192C409.024 370.63 406.387 370.476 404.783 370.164C398.536 368.947 392.32 367.571 386.147 366.018C374.672 363.131 363.403 359.552 352.358 355.332Z" fill="#F4B6C8"/>
<path d="M240.024 553.211L645.01 432.606C635.656 424.497 627.786 414.685 621.636 403.578C575.439 425.275 524.731 437.694 473.839 440.674C439.516 442.684 405.585 441.056 371.784 436.253C204.099 483.125 27.8772 532.049 24.1812 531.68L240.024 553.211Z" fill="#E8A5B9"/>
<path d="M478.27 819.008L374.97 806.19L250.052 790.689L218.904 786.824L60.0271 767.11L77.8721 1345.21L721.098 1491.02V849.279V849.139L478.27 819.008Z" fill="#FEC7D7"/>
<path d="M1419.17 531.961L1420.26 531.68L1031.62 438.404C1009.78 440.742 987.932 441.696 966.571 441.545C913.893 441.173 861.197 430.606 813.505 409.147C807.099 417.099 799.67 424.301 791.444 430.562L1203.3 553.211L1224.42 786.824L1193.27 790.689L1000.21 814.645L976.787 575.806L749.074 452.141C737.573 455.576 725.566 457.433 713.436 457.433C705.011 457.433 696.958 456.518 689.308 454.822L466.532 575.807L721.66 601.258L721.098 601.314V759.712V849.14V849.28V1491.02V1491.27L721.66 1491.15L722.221 1491.02L1365.45 1345.21L1383.29 767.112L1442.92 759.714L1419.17 531.961Z" fill="#E0AFBE"/>
<path d="M1252.94 129.809C1236.45 115.212 1218.13 104.093 1196.63 98.407C1168.13 90.868 1137.98 92.406 1109.59 99.623C1059.77 112.289 1019.34 143.507 983.022 178.513C975.423 185.837 967.922 193.264 960.27 200.532C956.721 203.905 953.14 207.245 949.503 210.523C947.823 212.035 946.134 213.534 944.43 215.017C943.295 216.006 942.141 216.974 941.004 217.961C936.675 221.719 943.194 216.362 944.642 215.007C941.978 218.089 937.417 220.652 934.16 223.051C929.961 226.146 925.68 229.132 921.323 232.003C917.549 234.49 913.719 236.891 909.838 239.209C908.793 239.833 907.737 240.439 906.683 241.049L906.561 241.114C898.248 245.492 889.74 249.499 881.075 253.13C877.399 254.671 873.679 256.089 869.955 257.502C868.234 258.07 866.516 258.645 864.784 259.186C859.017 260.985 853.186 262.571 847.33 264.06C857.711 249.575 867.437 234.636 875.97 218.914C901.376 172.103 919.76 116.877 911.125 62.975C907.165 38.255 893.38 14.663 869.249 5.08805C836.498 -7.90795 796.246 5.71302 771.511 28.968C748.789 50.332 733.754 77.104 723.276 105.854C722.085 101.562 720.917 97.264 719.597 93.013C712.465 70.055 702.971 47.275 688.357 28.002C681.244 18.621 672.095 11.127 660.524 8.02805C642.081 3.09005 621.448 7.30504 603.96 13.772C577.388 23.598 558.489 44.169 549.096 70.641C532.402 117.698 546.197 168.193 568.454 210.793C576.555 226.298 585.579 241.462 595.332 256.178C589.607 254.261 583.93 252.206 578.308 249.993C553.292 239.071 529.771 225.141 508.387 208.152C481.541 185.279 457.85 159.014 430.325 136.854C400.817 113.097 365.033 96.649 326.933 93.792C246.833 87.786 159.867 143.235 151.317 227.263C144.096 298.229 187.401 360.467 246.448 395.615C277.045 413.828 311.903 425.575 346.793 432.168C355.118 433.741 363.449 435.065 371.785 436.25C405.585 441.054 439.517 442.681 473.84 440.671C524.732 437.691 575.44 425.272 621.637 403.575C627.786 414.683 635.656 424.494 645.011 432.603L240.024 553.211L218.903 786.824L250.052 790.689L374.969 806.189L443.11 814.644L466.532 575.805L689.309 454.821C696.959 456.517 705.012 457.432 713.437 457.432C725.567 457.432 737.574 455.575 749.075 452.14L976.788 575.805L1000.21 814.644L1193.27 790.688L1224.42 786.823L1203.3 553.21L791.445 430.561C799.671 424.299 807.1 417.098 813.506 409.146C861.198 430.605 913.893 441.172 966.572 441.544C987.933 441.695 1009.78 440.741 1031.62 438.403C1108.27 430.2 1184.77 404.874 1239.43 349.747C1268.81 320.108 1290.88 280.324 1293.59 238.093C1296.16 198.167 1283.53 156.897 1252.94 129.809ZM555.576 363.097C552.343 364.312 547.454 365.684 558.384 362.016C557.447 362.373 556.515 362.744 555.576 363.097ZM559.945 361.519L559.126 361.768C560.243 361.394 561.454 360.991 562.886 360.517C561.904 360.842 560.927 361.189 559.945 361.519ZM591.947 346.775L591.727 346.904C582.464 351.758 573.024 356.229 563.312 360.12C561.771 360.737 560.217 361.317 558.666 361.908C553.516 363.61 548.331 365.211 543.1 366.645C537.67 368.134 532.199 369.471 526.698 370.673C526.029 370.819 524.346 371.155 522.696 371.483C520.883 371.79 519.048 372.1 518.279 372.216C505.764 374.1 493.148 375.296 480.506 375.883C478.22 375.989 475.885 375.985 473.572 376.078H473.218C466.482 376.047 459.749 375.849 453.022 375.494C440.455 374.831 427.912 373.614 415.446 371.889C413.883 371.673 412.325 371.429 410.765 371.193C409.025 370.631 406.388 370.477 404.784 370.165C398.537 368.948 392.321 367.572 386.148 366.019C374.674 363.131 363.405 359.552 352.36 355.331C334.597 347.585 317.88 337.894 302.664 325.869C288.391 313.242 276.114 298.662 266.644 282.092C258.734 265.728 253.925 248.194 252.595 230.064C252.644 217.551 254.41 205.247 258.146 193.317C261.127 186.287 264.791 179.637 269.132 173.367C271.249 170.879 273.428 168.447 275.768 166.155C276.617 165.324 277.507 164.542 278.392 163.752L279.173 163.171C280.568 162.171 282.013 161.257 283.449 160.326C284.187 159.986 284.928 159.649 285.671 159.324L286.03 159.23L286.808 159.169C288.479 159.229 290.153 159.281 291.816 159.441L293.028 159.582C294.973 160.027 296.941 160.412 298.856 160.934C302.227 161.852 305.532 162.965 308.81 164.155C323.607 170.854 337.194 179.639 349.906 189.73C382.44 217.477 410.474 249.961 445.914 274.393C480.917 298.522 521.54 315.82 562.799 325.82C577.225 329.316 591.912 332.001 606.684 333.98C606.587 335.123 606.504 336.271 606.448 337.428C603.687 339.307 600.957 341.234 598.128 343.01C596.084 344.294 594.023 345.547 591.947 346.775ZM662.319 253.379C654.221 242.127 646.565 230.545 639.428 218.636C616.593 180.532 597.141 137.878 599.852 92.419C601.01 72.988 607.233 50.807 619.947 35.667L620.523 35.062C620.984 35.376 621.461 35.686 621.884 35.994C626.072 39.041 629.672 42.845 632.873 46.897C646.11 63.653 654.304 85.226 660.769 105.354C667.941 127.679 673.195 150.672 676.883 173.821C680.559 196.908 682.47 220.226 682.799 243.561C675.68 246.308 668.823 249.604 662.319 253.379ZM757.557 235.523C757.404 219.276 758.399 202.989 760.409 186.838C765.977 142.132 776.424 92.546 801.625 55.721C804.656 51.291 807.917 47.016 811.402 42.932C813.101 40.939 814.859 38.99 816.675 37.102L817.35 36.482C818.613 35.325 819.877 34.173 821.188 33.068C821.734 32.608 822.293 32.159 822.864 31.722C823.706 32.054 824.552 32.37 825.377 32.755C826.493 33.276 827.595 33.825 828.658 34.447L828.96 34.619L829.603 35.107C833.891 38.249 837.758 41.892 841.029 46.091C847.721 54.68 851.034 65.831 852.946 76.415C861.433 123.365 845.733 173.669 824.554 215.171C817.569 228.859 809.586 241.975 800.951 254.685C789.015 245.174 774.483 238.54 757.557 235.523ZM1184.98 282.626C1180.52 293.531 1174.83 303.772 1168.06 313.397C1162.31 320.454 1156.17 327.17 1149.42 333.292C1149.05 333.62 1148.22 334.344 1147.33 335.111C1146.27 335.95 1145.21 336.789 1144.77 337.124C1140.31 340.48 1135.72 343.654 1131.01 346.637C1129.43 347.636 1127.82 348.588 1126.22 349.547C1127.39 348.934 1128.77 348.218 1130.43 347.362C1129.27 347.961 1128.13 348.608 1126.97 349.215L1125.87 349.764C1125.34 350.08 1124.82 350.409 1124.29 350.724C1121.73 352.241 1117.91 353.946 1124.86 350.264C1119.91 352.795 1114.88 355.177 1109.77 357.36C1107.09 358.5 1104.4 359.59 1101.69 360.639C1096.45 362.333 1091.21 363.971 1085.89 365.41C1080.11 366.974 1074.28 368.368 1068.43 369.622C1067.09 369.908 1065.75 370.172 1064.4 370.432C1063.33 370.611 1062.25 370.79 1061.18 370.959C1048.5 372.947 1035.74 374.383 1022.94 375.275C1017.08 375.684 1010.85 375.33 1005.01 376.067C1001.82 376.055 998.641 376.02 995.46 375.93C982.016 375.551 968.589 374.493 955.263 372.672C952.131 372.245 949.016 371.655 945.882 371.262C960.78 373.129 947.127 371.385 943.387 370.611C936.712 369.229 930.078 367.642 923.504 365.84C912.785 362.902 902.262 359.347 891.919 355.298C875.058 347.928 858.935 339.082 843.814 328.683C889.565 319.053 933.637 301.696 973.895 277.841C1002.14 261.107 1027.02 239.483 1050.53 216.716C1061.36 206.235 1072.03 195.587 1083.29 185.563C1086.1 183.061 1089.01 180.679 1091.82 178.183C1080.33 188.385 1090.23 179.599 1093.24 177.34C1098.64 173.274 1104.26 169.485 1110.04 165.98C1111.01 165.469 1111.98 164.953 1112.97 164.477C1115.65 163.186 1118.37 162.028 1121.11 160.885C1121.95 160.634 1122.78 160.362 1123.62 160.132C1124.52 159.887 1125.43 159.687 1126.33 159.471C1127.03 159.386 1127.72 159.294 1128.42 159.227C1128.76 159.195 1129.32 159.159 1129.96 159.122L1130.18 159.132C1131.6 159.213 1133.01 159.372 1134.41 159.515C1135.38 159.739 1136.34 159.952 1137.3 160.216C1139.04 160.697 1140.76 161.238 1142.47 161.824C1148.56 164.722 1154.3 168.186 1159.73 172.187C1168.54 180.132 1175.97 189.323 1181.89 199.612C1187.6 212.13 1190.85 225.46 1191.94 239.17C1191.93 253.985 1189.53 268.547 1184.98 282.626Z" fill="#9877CE"/>
<path d="M641.471 268.168L641.624 268.189C647.936 262.65 654.887 257.693 662.319 253.379C654.221 242.127 646.565 230.545 639.428 218.636C616.593 180.532 597.141 137.878 599.852 92.419C601.01 72.988 607.233 50.807 619.947 35.667L620.523 35.062C620.984 35.376 621.461 35.686 621.884 35.994C626.072 39.041 629.672 42.845 632.873 46.897C646.11 63.653 654.304 85.226 660.769 105.354C667.941 127.679 673.195 150.672 676.883 173.821C680.559 196.908 682.47 220.226 682.799 243.561C699.52 237.109 717.619 233.611 735.618 233.611C743.315 233.611 750.622 234.285 757.558 235.522C757.405 219.275 758.4 202.988 760.41 186.837C765.978 142.131 776.425 92.545 801.626 55.72C804.657 51.29 807.918 47.015 811.403 42.931C813.102 40.938 814.86 38.989 816.676 37.101L817.351 36.481C818.614 35.324 819.878 34.172 821.189 33.067C821.735 32.607 822.294 32.158 822.865 31.721C823.707 32.053 824.553 32.369 825.378 32.754C826.494 33.275 827.596 33.824 828.659 34.446L828.961 34.618L829.604 35.106C833.892 38.248 837.759 41.891 841.03 46.09C847.722 54.679 851.035 65.83 852.947 76.414C861.434 123.364 845.734 173.668 824.555 215.17C817.57 228.858 809.587 241.974 800.952 254.684C806.532 259.13 811.558 264.178 815.943 269.844C817.396 269.675 818.854 269.56 820.305 269.372C824.42 268.84 828.503 268.141 832.598 267.506C834.23 267.166 835.864 266.831 837.49 266.468C840.786 265.733 844.057 264.892 847.33 264.06C857.711 249.575 867.437 234.636 875.97 218.914C901.376 172.103 919.76 116.877 911.125 62.975C907.165 38.255 893.38 14.663 869.249 5.08805C836.498 -7.90795 796.246 5.71302 771.511 28.968C748.789 50.332 733.754 77.104 723.276 105.854C722.085 101.562 720.917 97.264 719.597 93.013C712.465 70.055 702.971 47.275 688.357 28.002C681.244 18.621 672.095 11.127 660.524 8.02805C642.081 3.09005 621.448 7.30504 603.96 13.772C577.388 23.598 558.489 44.169 549.096 70.641C532.402 117.698 546.197 168.193 568.454 210.793C576.555 226.298 585.579 241.462 595.332 256.178C606.426 259.893 617.68 263.112 629.113 265.662C633.218 266.58 637.342 267.369 641.471 268.168Z" fill="#8466B8"/>
<path d="M1203.3 553.211L791.444 430.562C799.67 424.3 807.099 417.099 813.505 409.147C828.75 390.222 838.137 367.027 838.137 341.885C838.137 313.124 830.308 288.408 815.943 269.845C811.558 264.178 806.532 259.131 800.952 254.685C789.015 245.175 774.483 238.541 757.557 235.523C750.62 234.286 743.313 233.612 735.617 233.612C717.618 233.612 699.519 237.11 682.798 243.562C675.68 246.309 668.823 249.604 662.319 253.379C654.888 257.693 647.937 262.65 641.624 268.189C622.211 285.227 608.93 307.764 606.684 333.982C606.587 335.125 606.504 336.273 606.448 337.43C606.378 338.908 606.307 340.385 606.307 341.884C606.307 364.61 611.764 385.745 621.637 403.577C627.786 414.685 635.656 424.496 645.011 432.605L240.024 553.211L218.903 786.824L250.052 790.689L374.969 806.189L443.11 814.644L466.532 575.805L689.309 454.821C696.959 456.517 705.012 457.432 713.437 457.432C725.567 457.432 737.574 455.575 749.075 452.14L976.788 575.805L1000.21 814.644L1193.27 790.688L1224.42 786.823L1203.3 553.211Z" fill="#A786DF"/>
<path d="M976.788 575.807L749.075 452.142C737.574 455.577 725.567 457.434 713.437 457.434C705.012 457.434 696.959 456.519 689.309 454.823L466.532 575.807L721.66 601.258L976.788 575.807Z" fill="#E8A5B9"/>
<path d="M813.505 409.146C807.099 417.098 799.67 424.3 791.444 430.561L1203.29 553.21L1419.14 531.678L1419.17 531.959L1420.26 531.678L1031.62 438.402C1009.78 440.74 987.931 441.694 966.57 441.543C913.892 441.172 861.197 430.606 813.505 409.146Z" fill="#E8A5B9"/>
<path d="M1224.42 786.824L1193.27 790.689L1199.43 1382.84L973.333 1434.09L965.052 819.008L721.098 849.279V1491.02V1491.27L721.66 1491.15L722.221 1491.02L1365.45 1345.21L1383.29 767.11L1224.42 786.824Z" fill="#F0B8C8"/>
<path d="M1000.21 814.645L965.052 819.008L973.333 1434.09L1199.43 1382.84L1193.27 790.689L1000.21 814.645Z" fill="#B795F2"/>
<path d="M250.052 790.689L243.892 1382.84L469.988 1434.09L478.27 819.008L374.97 806.19L250.052 790.689Z" fill="#B795F2"/>
</svg>
