<svg width="512" height="509" viewBox="0 0 512 509" fill="none" xmlns="http://www.w3.org/2000/svg">
<path d="M444.715 349.937V251.112C444.715 238.068 434.104 227.457 421.06 227.457H90.9402C77.8962 227.457 67.2852 238.068 67.2852 251.112V349.937C67.2852 352.701 67.7672 355.355 68.6412 357.822H443.358C444.233 355.353 444.715 352.701 444.715 349.937Z" fill="#D494E4"/>
<path d="M103.556 265.835C111.104 265.835 117.223 259.716 117.223 252.168C117.223 244.62 111.104 238.501 103.556 238.501C96.0081 238.501 89.8892 244.62 89.8892 252.168C89.8892 259.716 96.0081 265.835 103.556 265.835Z" fill="#FFE4EC"/>
<path d="M164.534 265.835C172.082 265.835 178.201 259.716 178.201 252.168C178.201 244.62 172.082 238.501 164.534 238.501C156.986 238.501 150.867 244.62 150.867 252.168C150.867 259.716 156.986 265.835 164.534 265.835Z" fill="#FFE4EC"/>
<path d="M225.511 265.835C233.059 265.835 239.178 259.716 239.178 252.168C239.178 244.62 233.059 238.501 225.511 238.501C217.963 238.501 211.844 244.62 211.844 252.168C211.844 259.716 217.963 265.835 225.511 265.835Z" fill="#FFE4EC"/>
<path d="M286.489 265.835C294.037 265.835 300.156 259.716 300.156 252.168C300.156 244.62 294.037 238.501 286.489 238.501C278.941 238.501 272.822 244.62 272.822 252.168C272.822 259.716 278.941 265.835 286.489 265.835Z" fill="#FFE4EC"/>
<path d="M347.466 265.835C355.014 265.835 361.133 259.716 361.133 252.168C361.133 244.62 355.014 238.501 347.466 238.501C339.918 238.501 333.799 244.62 333.799 252.168C333.799 259.716 339.918 265.835 347.466 265.835Z" fill="#FFE4EC"/>
<path d="M408.444 265.835C415.992 265.835 422.111 259.716 422.111 252.168C422.111 244.62 415.992 238.501 408.444 238.501C400.896 238.501 394.777 244.62 394.777 252.168C394.777 259.716 400.896 265.835 408.444 265.835Z" fill="#FFE4EC"/>
<path d="M103.556 314.196C111.104 314.196 117.223 308.077 117.223 300.529C117.223 292.981 111.104 286.862 103.556 286.862C96.0081 286.862 89.8892 292.981 89.8892 300.529C89.8892 308.077 96.0081 314.196 103.556 314.196Z" fill="#FFE4EC"/>
<path d="M164.534 314.196C172.082 314.196 178.201 308.077 178.201 300.529C178.201 292.981 172.082 286.862 164.534 286.862C156.986 286.862 150.867 292.981 150.867 300.529C150.867 308.077 156.986 314.196 164.534 314.196Z" fill="#FFE4EC"/>
<path d="M225.511 314.196C233.059 314.196 239.178 308.077 239.178 300.529C239.178 292.981 233.059 286.862 225.511 286.862C217.963 286.862 211.844 292.981 211.844 300.529C211.844 308.077 217.963 314.196 225.511 314.196Z" fill="#FFE4EC"/>
<path d="M286.489 314.196C294.037 314.196 300.156 308.077 300.156 300.529C300.156 292.981 294.037 286.862 286.489 286.862C278.941 286.862 272.822 292.981 272.822 300.529C272.822 308.077 278.941 314.196 286.489 314.196Z" fill="#FFE4EC"/>
<path d="M347.466 314.196C355.014 314.196 361.133 308.077 361.133 300.529C361.133 292.981 355.014 286.862 347.466 286.862C339.918 286.862 333.799 292.981 333.799 300.529C333.799 308.077 339.918 314.196 347.466 314.196Z" fill="#FFE4EC"/>
<path d="M408.444 314.196C415.992 314.196 422.111 308.077 422.111 300.529C422.111 292.981 415.992 286.862 408.444 286.862C400.896 286.862 394.777 292.981 394.777 300.529C394.777 308.077 400.896 314.196 408.444 314.196Z" fill="#FFE4EC"/>
<path d="M103.556 362.558C111.104 362.558 117.223 356.439 117.223 348.891C117.223 341.343 111.104 335.224 103.556 335.224C96.0081 335.224 89.8892 341.343 89.8892 348.891C89.8892 356.439 96.0081 362.558 103.556 362.558Z" fill="#FFE4EC"/>
<path d="M164.534 362.558C172.082 362.558 178.201 356.439 178.201 348.891C178.201 341.343 172.082 335.224 164.534 335.224C156.986 335.224 150.867 341.343 150.867 348.891C150.867 356.439 156.986 362.558 164.534 362.558Z" fill="#FFE4EC"/>
<path d="M225.511 362.558C233.059 362.558 239.178 356.439 239.178 348.891C239.178 341.343 233.059 335.224 225.511 335.224C217.963 335.224 211.844 341.343 211.844 348.891C211.844 356.439 217.963 362.558 225.511 362.558Z" fill="#FFE4EC"/>
<path d="M286.489 362.558C294.037 362.558 300.156 356.439 300.156 348.891C300.156 341.343 294.037 335.224 286.489 335.224C278.941 335.224 272.822 341.343 272.822 348.891C272.822 356.439 278.941 362.558 286.489 362.558Z" fill="#FFE4EC"/>
<path d="M347.466 362.558C355.014 362.558 361.133 356.439 361.133 348.891C361.133 341.343 355.014 335.224 347.466 335.224C339.918 335.224 333.799 341.343 333.799 348.891C333.799 356.439 339.918 362.558 347.466 362.558Z" fill="#FFE4EC"/>
<path d="M408.444 362.558C415.992 362.558 422.111 356.439 422.111 348.891C422.111 341.343 415.992 335.224 408.444 335.224C400.896 335.224 394.777 341.343 394.777 348.891C394.777 356.439 400.896 362.558 408.444 362.558Z" fill="#FFE4EC"/>
<path d="M488.345 357.822H23.655C10.611 357.822 0 368.433 0 381.477V484.508C0 497.552 10.611 508.163 23.655 508.163H488.345C501.389 508.163 512 497.552 512 484.508V381.477C512 368.433 501.389 357.822 488.345 357.822Z" fill="#FF7FA4"/>
<path d="M293.848 357.827H218.152V508.168H293.848V357.827Z" fill="#FF7FA4"/>
<path d="M512 381.477C512 376.487 510.443 371.856 507.795 368.036L367.669 508.163H427.141L512 423.303V381.477Z" fill="#F2F2F2"/>
<path d="M409.196 357.822L258.855 508.163H318.327L468.668 357.822H409.196Z" fill="#F2F2F2"/>
<path d="M300.383 357.822L150.042 508.163H209.514L359.855 357.822H300.383Z" fill="#F2F2F2"/>
<path d="M191.57 357.822L41.229 508.163H100.701L251.042 357.822H191.57Z" fill="#F2F2F2"/>
<path d="M82.757 357.822L0 440.579V484.508C0 488.954 1.235 493.117 3.377 496.674L142.229 357.822H82.757Z" fill="#F2F2F2"/>
<path d="M377.429 219.571V137.567C377.429 124.523 366.818 113.912 353.774 113.912H158.226C145.182 113.912 134.571 124.523 134.571 137.567V219.571C134.571 222.335 135.053 224.989 135.927 227.456H376.073C376.948 224.988 377.429 222.335 377.429 219.571Z" fill="#A786DF"/>
<path d="M377.429 163.174L328.167 113.912H298.429L377.429 192.911V163.174Z" fill="#F2F2F2"/>
<path d="M246.913 113.912L360.457 227.456H376.072C376.948 224.989 377.428 222.335 377.428 219.571V214.69L276.651 113.912H246.913Z" fill="#F2F2F2"/>
<path d="M195.398 113.912L308.942 227.456H338.68L225.136 113.912H195.398Z" fill="#F2F2F2"/>
<path d="M158.226 113.912C154.093 113.912 150.206 114.98 146.822 116.85L257.428 227.456H287.165L173.621 113.912H158.226Z" fill="#F2F2F2"/>
<path d="M134.571 137.567V156.116L205.911 227.456H235.648L136.471 128.279C135.25 131.133 134.571 134.271 134.571 137.567Z" fill="#F2F2F2"/>
<path d="M134.571 207.63L154.396 227.456H184.134L134.571 177.893V207.63Z" fill="#F2F2F2"/>
<path d="M293.852 227.461H218.331V357.827H293.852V227.461Z" fill="#BF86CD"/>
<path d="M286.489 314.191C278.94 314.191 272.822 308.072 272.822 300.524C272.822 292.975 278.941 286.857 286.489 286.857C289.201 286.857 291.723 287.657 293.848 289.02V263.668C291.722 265.031 289.201 265.831 286.489 265.831C278.94 265.831 272.822 259.712 272.822 252.164C272.822 244.616 278.941 238.497 286.489 238.497C289.201 238.497 291.723 239.297 293.848 240.66V227.458H218.327V240.553C220.416 239.258 222.872 238.497 225.511 238.497C233.06 238.497 239.178 244.616 239.178 252.164C239.178 259.712 233.059 265.831 225.511 265.831C222.872 265.831 220.416 265.07 218.327 263.775V288.915C220.416 287.62 222.872 286.859 225.511 286.859C233.06 286.859 239.178 292.978 239.178 300.526C239.178 308.075 233.059 314.193 225.511 314.193C222.872 314.193 220.416 313.432 218.327 312.137V337.276C220.416 335.981 222.872 335.22 225.511 335.22C233.06 335.22 239.178 341.339 239.178 348.887C239.178 352.307 237.913 355.426 235.837 357.823H276.163C274.087 355.426 272.822 352.307 272.822 348.887C272.822 341.338 278.941 335.22 286.489 335.22C289.201 335.22 291.723 336.02 293.848 337.383V312.031C291.722 313.391 289.201 314.191 286.489 314.191Z" fill="#BF86CD"/>
<path d="M239.179 252.163C239.179 244.614 233.06 238.496 225.512 238.496C222.873 238.496 220.417 239.257 218.328 240.552V263.774C220.417 265.069 222.873 265.83 225.512 265.83C233.06 265.83 239.179 259.71 239.179 252.163Z" fill="#FFE4EC"/>
<path d="M272.821 252.163C272.821 259.712 278.94 265.83 286.488 265.83C289.2 265.83 291.722 265.03 293.847 263.667V240.657C291.721 239.294 289.2 238.494 286.488 238.494C278.94 238.495 272.821 244.614 272.821 252.163Z" fill="#FFE4EC"/>
<path d="M239.179 300.524C239.179 292.975 233.06 286.857 225.512 286.857C222.873 286.857 220.417 287.618 218.328 288.913V312.135C220.417 313.43 222.873 314.191 225.512 314.191C233.06 314.191 239.179 308.071 239.179 300.524Z" fill="#FFE4EC"/>
<path d="M272.821 300.524C272.821 308.073 278.94 314.191 286.488 314.191C289.2 314.191 291.722 313.391 293.847 312.028V289.019C291.721 287.656 289.2 286.856 286.488 286.856C278.94 286.857 272.821 292.975 272.821 300.524Z" fill="#FFE4EC"/>
<path d="M225.511 335.218C222.872 335.218 220.416 335.979 218.327 337.274V357.821H235.837C237.913 355.424 239.178 352.305 239.178 348.885C239.179 341.337 233.06 335.218 225.511 335.218Z" fill="#FFE4EC"/>
<path d="M272.821 348.885C272.821 352.305 274.086 355.424 276.162 357.821H293.848V337.38C291.722 336.017 289.201 335.217 286.489 335.217C278.94 335.218 272.821 341.337 272.821 348.885Z" fill="#FFE4EC"/>
<path d="M218.152 337.321C218.152 338.032 218.222 338.723 218.328 339.405V335.239C218.222 335.918 218.152 336.61 218.152 337.321Z" fill="#FF7452"/>
<path d="M158.226 113.912C145.182 113.912 134.571 124.523 134.571 137.567V219.571C134.571 222.335 135.053 224.989 135.927 227.456H218.327V113.912H158.226Z" fill="#A786DF"/>
<path d="M293.852 113.907H218.331V227.451H293.852V113.907Z" fill="#A786DF"/>
<path d="M353.774 113.912H293.848V227.456H376.073C376.949 224.989 377.429 222.335 377.429 219.571V137.567C377.429 124.523 366.818 113.912 353.774 113.912Z" fill="#A786DF"/>
<path d="M377.429 163.174L328.167 113.912H298.429L377.429 192.911V163.174Z" fill="#F2F2F2"/>
<path d="M276.651 113.912H246.913L293.848 160.846V131.109L276.651 113.912Z" fill="#CCCCCC"/>
<path d="M293.848 131.109V160.846L360.457 227.455H376.072C376.948 224.988 377.428 222.334 377.428 219.57V214.689L293.848 131.109Z" fill="#F2F2F2"/>
<path d="M195.398 113.912L218.328 136.841V113.912H195.398Z" fill="#F2F2F2"/>
<path d="M293.848 182.624L225.136 113.912H218.328V136.841L293.848 212.361V182.624Z" fill="#CCCCCC"/>
<path d="M338.68 227.456L293.848 182.624V212.361L308.942 227.456H338.68Z" fill="#F2F2F2"/>
<path d="M173.621 113.912H158.226C154.093 113.912 150.206 114.98 146.822 116.85L218.327 188.355V158.618L173.621 113.912Z" fill="#F2F2F2"/>
<path d="M287.165 227.456L218.328 158.619V188.356L257.427 227.456H287.165Z" fill="#CCCCCC"/>
<path d="M218.328 210.134V227.456H235.649L218.328 210.134Z" fill="#CCCCCC"/>
<path d="M136.473 128.28C135.25 131.133 134.571 134.272 134.571 137.567V156.116L205.911 227.456H218.326V210.134L136.473 128.28Z" fill="#F2F2F2"/>
<path d="M134.571 207.63L154.396 227.456H184.134L134.571 177.893V207.63Z" fill="#F2F2F2"/>
<path d="M258.855 508.163H293.848V473.17L258.855 508.163Z" fill="#CCCCCC"/>
<path d="M293.848 364.357L218.152 440.053V499.525L293.848 423.829V364.357Z" fill="#CCCCCC"/>
<path d="M218.152 357.822V390.712L251.042 357.822H218.152Z" fill="#CCCCCC"/>
<path d="M365.266 12.144C349.074 -4.048 322.729 -4.048 306.537 12.144C295.865 22.816 269.335 75.603 256 102.882C242.664 75.603 216.135 22.817 205.463 12.144C189.271 -4.048 162.925 -4.048 146.734 12.144C130.542 28.336 130.542 54.681 146.734 70.873C156.172 80.311 198.546 102.15 227.089 116.299V508.162H284.912V116.299C313.455 102.15 355.829 80.312 365.267 70.873C381.458 54.682 381.458 28.337 365.266 12.144ZM157.885 23.295C162.906 18.274 169.502 15.762 176.098 15.762C182.694 15.762 189.29 18.273 194.311 23.295C201.599 30.583 222.839 71.254 239.36 104.77C205.843 88.25 165.173 67.009 157.885 59.721C147.843 49.68 147.843 33.339 157.885 23.295ZM354.115 59.722C346.827 67.01 306.156 88.25 272.64 104.771C289.16 71.254 310.401 30.584 317.689 23.296C327.732 13.254 344.073 13.254 354.116 23.296C364.157 33.339 364.157 49.68 354.115 59.722Z" fill="#0E172C"/>
<path d="M505.154 67.722C499.802 67.01 486.311 64.03 476.679 51.75C469.836 43.021 468.193 33.549 467.823 28.682C467.51 24.571 464.083 21.395 459.96 21.395C455.837 21.395 452.41 24.571 452.097 28.682C451.727 33.551 450.083 43.021 443.242 51.749C433.609 64.032 420.118 67.011 414.766 67.723C410.847 68.243 407.92 71.586 407.92 75.54C407.92 79.494 410.848 82.835 414.766 83.357C420.119 84.069 433.61 87.048 443.241 99.329C450.084 108.058 451.727 117.53 452.097 122.397C452.41 126.508 455.837 129.684 459.96 129.684C464.083 129.684 467.51 126.508 467.823 122.397C468.193 117.528 469.837 108.058 476.678 99.33C486.311 87.047 499.802 84.068 505.154 83.356C509.073 82.836 512 79.493 512 75.539C512 71.584 509.072 68.242 505.154 67.722Z" fill="#0E172C"/>
<path d="M97.236 67.722C91.883 67.01 78.392 64.031 68.761 51.75C61.918 43.021 60.275 33.549 59.905 28.682C59.592 24.571 56.165 21.395 52.042 21.395C47.919 21.395 44.492 24.571 44.179 28.682C43.809 33.551 42.165 43.021 35.323 51.75C25.69 64.029 12.2 67.01 6.846 67.722C2.928 68.242 0 71.584 0 75.538C0 79.492 2.928 82.833 6.846 83.355C12.199 84.067 25.69 87.046 35.321 99.327C42.164 108.056 43.807 117.528 44.177 122.395C44.49 126.506 47.917 129.682 52.04 129.682C56.163 129.682 59.59 126.506 59.903 122.395C60.273 117.526 61.917 108.056 68.758 99.328C78.391 87.045 91.882 84.066 97.234 83.354C101.152 82.834 104.08 79.491 104.08 75.538C104.082 71.585 101.154 68.242 97.236 67.722Z" fill="#0E172C"/>
</svg>
